<?xml version="1.0"?>
<svg width="1536" height="387" xmlns="http://www.w3.org/2000/svg" xmlns:svg="http://www.w3.org/2000/svg" preserveAspectRatio="xMidYMid meet" version="1.0">
 <g class="layer">
  <title>Layer 1</title>
  <g fill="#000000" id="svg_1" transform="translate(0 387) matrix(0.1 0 0 -0.1 0 0)">
   <path d="m3470,2518c-96,-266 -189,-522 -207,-571l-32,-88l562,3l562,3l66,31c122,58 187,137 240,290c35,99 35,152 -1,210c-23,36 -90,73 -136,75c-17,1 -8,5 24,9c172,25 327,190 327,346c0,78 -30,125 -97,154c-45,19 -67,20 -590,20l-543,0l-175,-482zm1040,215c0,-5 -13,-44 -29,-88l-29,-80l-306,-3c-208,-1 -306,1 -306,8c0,6 6,26 14,45l14,34l-76,45l-77,46l398,0c218,0 397,-3 397,-7zm-160,-441c0,-4 -13,-44 -29,-88l-29,-79l-306,-3c-175,-1 -306,2 -306,7c0,5 7,25 15,44l15,36l-70,42c-39,23 -70,43 -70,45c0,2 176,4 390,4c215,0 390,-4 390,-8z" fill="#800001" id="svg_2"/>
   <path d="m5296,2984c-106,-33 -208,-122 -251,-218c-13,-28 -76,-194 -139,-368c-125,-343 -133,-376 -96,-447c11,-22 36,-50 57,-62l38,-24l465,0l465,0l59,28c78,36 139,87 181,151c41,61 273,694 282,766c7,63 -23,130 -75,162c-37,23 -37,23 -487,25c-380,2 -458,0 -499,-13zm690,-266c-3,-13 -52,-151 -110,-308l-104,-285l-306,-3c-168,-1 -306,1 -306,6c0,4 41,119 90,255c50,136 90,253 90,260c0,6 -27,28 -60,46c-33,19 -60,39 -60,43c0,4 174,8 386,8l386,0l-6,-22z" fill="#800001" id="svg_3"/>
   <path d="m6793,2985c-85,-26 -177,-97 -229,-174c-28,-43 -268,-688 -279,-749c-13,-79 25,-149 100,-183c37,-17 73,-19 471,-19c466,0 488,2 580,56c56,33 141,124 164,176c10,24 71,186 134,360c99,270 116,327 116,376c0,74 -27,118 -90,150c-44,22 -47,22 -485,21c-334,0 -450,-3 -482,-14zm687,-259c0,-13 -173,-496 -205,-572l-14,-34l-299,0c-164,0 -301,2 -304,5c-4,4 134,398 177,507c5,12 -9,25 -59,55c-36,22 -63,43 -59,46c3,4 177,7 385,7c314,0 378,-2 378,-14z" fill="#800001" id="svg_4"/>
   <path d="m8127,2993c-7,-12 -407,-1119 -407,-1127c0,-3 78,-6 173,-6l172,0l99,275c55,151 101,273 103,271c3,-2 19,-66 37,-143l32,-138l175,-3l174,-2l134,140c73,78 135,139 137,137c2,-2 -39,-123 -91,-268c-52,-145 -95,-265 -95,-266c0,-2 78,-3 173,-3l173,0l201,553c111,303 205,560 208,570c7,16 -5,17 -168,17l-175,0l-278,-290c-154,-159 -281,-290 -284,-290c-3,0 -34,125 -69,278c-36,152 -67,283 -69,290c-3,9 -48,12 -177,12c-96,0 -176,-3 -178,-7z" fill="#800001" id="svg_5"/>
   <path d="m9905,2986c-92,-29 -175,-89 -226,-163c-40,-57 -279,-708 -286,-778c-6,-63 27,-130 78,-160c33,-19 51,-20 508,-20l473,0l44,115c23,63 43,121 43,128c1,9 -83,12 -389,12c-214,0 -390,2 -390,4c0,2 6,22 14,44l15,41l-72,45l-72,45l396,1l395,0l46,128l46,127l-304,3c-167,1 -304,4 -304,6c0,2 7,22 15,45l14,41l-72,42l-72,43l484,5l484,5l43,115c24,63 43,121 43,128c1,18 -896,16 -954,-2z" fill="#800001" id="svg_6"/>
   <path d="m10830,2443c-111,-307 -205,-564 -207,-570c-4,-10 34,-13 170,-13l174,0l48,131c40,109 46,132 34,140c-8,5 -38,23 -66,40c-29,17 -53,32 -53,35c0,2 96,4 214,4l214,0l113,-175l112,-175l174,0c137,0 173,3 166,13c-4,6 -54,84 -110,172l-103,160l86,7c62,5 100,14 140,33c67,33 156,113 190,171c28,47 114,282 133,361c22,89 -15,168 -93,204c-38,17 -77,19 -587,19l-546,0l-203,-557zm1068,285c-3,-7 -24,-68 -49,-135l-44,-123l-307,0c-170,0 -308,1 -308,3c0,1 14,38 30,82c35,93 36,102 13,109c-10,4 -43,22 -73,41l-55,35l399,0c314,0 397,-3 394,-12z" fill="#800001" id="svg_7"/>
   <path d="m2624,1740c-29,-4 -73,-18 -100,-31c-61,-30 -148,-110 -179,-163c-38,-66 -266,-695 -272,-751c-6,-70 26,-131 87,-162l45,-24l460,3l460,3l55,26c70,33 136,88 177,148c20,29 78,170 154,376c137,375 150,432 107,494c-33,49 -70,73 -125,82c-61,10 -800,9 -869,-1zm646,-267c0,-5 -48,-142 -107,-305l-108,-298l-307,0c-170,0 -308,1 -308,3c0,1 43,119 95,262c67,186 91,262 82,267c-7,4 -37,23 -67,42l-55,35l388,1c213,0 387,-3 387,-7z" fill="#800001" id="svg_8"/>
   <path d="m4122,1740c-109,-16 -233,-103 -284,-197c-14,-26 -79,-192 -144,-368c-134,-364 -146,-421 -102,-484c12,-19 36,-44 51,-55c28,-21 37,-21 505,-21l477,0l63,33c121,63 178,134 236,295l35,97l-174,0l-174,0l-21,-57c-11,-32 -26,-70 -32,-85l-10,-28l-304,0c-184,0 -304,4 -304,9c0,6 41,122 90,259c50,137 90,251 90,255c0,3 -30,24 -67,46l-68,41l393,0c215,0 392,-1 392,-2c0,-2 -14,-39 -30,-83c-16,-44 -30,-81 -30,-82c0,-2 78,-3 174,-3l174,0l32,87c58,161 60,222 8,288c-46,59 -54,60 -508,62c-228,0 -439,-2 -468,-7z" fill="#800001" id="svg_9"/>
   <path d="m732,1183c-111,-307 -202,-561 -202,-566c0,-4 77,-6 172,-5l172,3l19,50c10,28 32,85 48,127l28,78l-69,41c-39,23 -70,43 -70,45c0,2 98,4 218,4l217,0l110,-175l110,-175l173,0c94,0 172,2 172,4c0,3 -46,76 -101,163c-56,87 -103,163 -106,169c-3,8 23,13 80,16c66,3 97,10 141,32c76,37 156,113 193,183c49,92 133,347 133,402c0,53 -25,99 -73,135c-28,21 -38,21 -595,24l-567,2l-203,-557zm1068,289c0,-5 -20,-62 -44,-128l-44,-119l-306,-3c-168,-1 -306,1 -306,5c0,5 13,44 30,88c22,60 27,81 17,87c-6,5 -36,22 -64,39c-29,17 -53,32 -53,35c0,2 173,4 385,4c212,0 385,-4 385,-8z" fill="#800001" id="svg_10"/>
   <path d="m5396,1732c-6,-10 -406,-1110 -406,-1117c0,-3 78,-5 173,-5l172,0l80,219c77,212 81,219 120,244c22,15 43,23 47,19c6,-6 100,-245 170,-429l19,-53l175,0c96,0 174,2 174,4c0,2 -58,154 -130,337c-71,182 -127,336 -124,340c3,5 151,106 330,226l326,218l-172,3l-171,2l-282,-189c-154,-105 -282,-189 -284,-187c-1,1 28,86 66,189l69,187l-173,0c-96,0 -176,-4 -179,-8z" fill="#800001" id="svg_11"/>
   <path d="m6745,1719c-91,-37 -177,-113 -217,-194c-9,-16 -70,-180 -137,-362c-99,-271 -121,-342 -121,-386c0,-60 23,-104 73,-141c28,-21 39,-21 507,-24l478,-3l46,127c25,69 46,128 46,130c0,2 -176,4 -391,4l-391,0l6,23c3,12 9,32 12,44c5,18 -2,26 -38,48c-106,66 -136,59 302,65l395,5l42,115c23,63 42,121 42,128c1,9 -66,12 -300,12l-301,0l6,23c3,12 9,32 12,43c5,19 -5,28 -63,63l-68,41l481,0c450,0 482,1 487,18c3,9 23,68 46,130l40,112l-472,-1c-449,0 -474,-1 -522,-20z" fill="#800001" id="svg_12"/>
   <path d="m7776,1615c-25,-69 -46,-127 -46,-130c0,-3 97,-5 216,-5c201,0 216,-1 211,-17c-2,-10 -73,-204 -156,-431c-83,-228 -151,-416 -151,-418c0,-2 78,-4 174,-4l173,0l142,389c77,213 141,391 141,394c0,3 -30,22 -66,44l-65,38l303,5l303,5l21,60c12,33 33,90 48,128l25,67l-613,0l-614,0l-46,-125z" fill="#800001" id="svg_13"/>
   <path d="m9893,1622c-24,-64 -43,-123 -43,-129c0,-10 53,-13 214,-15l214,-3l-139,-380c-76,-209 -148,-404 -159,-433l-19,-52l176,2l176,3l143,390l142,390l-66,40l-66,40l300,3l301,2l43,118c24,64 45,123 48,130c3,9 -123,12 -609,12l-614,0l-42,-118z" fill="#800001" id="svg_14"/>
   <path d="m11419,1721c-93,-36 -178,-110 -219,-192c-12,-22 -73,-182 -138,-357c-111,-300 -117,-321 -117,-392c0,-64 4,-80 24,-107c47,-62 52,-63 565,-63l463,0l41,113c22,61 43,120 47,130c7,16 -16,17 -388,17l-396,0l14,41c8,23 15,43 15,44c0,2 -30,22 -67,46l-68,44l394,5l393,5l44,119c24,66 44,123 44,128c0,4 -137,8 -304,8l-305,0l15,35c7,19 14,39 14,44c0,5 -30,26 -66,48l-65,38l477,5l478,5l19,50c10,28 32,85 47,128l29,77l-472,0c-430,-1 -476,-3 -518,-19z" fill="#800001" id="svg_15"/>
   <path d="m13565,1723c-4,-10 -94,-256 -200,-548c-106,-291 -197,-538 -200,-548c-7,-16 4,-17 170,-15l177,3l96,268c53,147 99,264 103,260c3,-5 21,-68 39,-140l32,-133l172,0l172,0l143,145c79,80 141,139 138,132c-2,-6 -43,-118 -90,-247c-47,-129 -90,-247 -96,-263l-11,-27l176,2l176,3l204,560c112,308 204,561 204,562c0,2 -78,3 -174,3l-174,0l-278,-288c-198,-204 -281,-283 -285,-272c-3,8 -34,138 -69,288l-64,272l-177,0c-159,0 -178,-2 -184,-17z" fill="#800001" id="svg_16"/>
   <path d="m13225,1691c-138,-76 -232,-148 -380,-292l-110,-107l-95,-25c-53,-14 -122,-37 -153,-51c-31,-14 -57,-23 -57,-21c0,2 10,21 22,41l22,38l-44,-25c-47,-25 -197,-167 -245,-232c-35,-47 -24,-65 26,-40c44,22 138,29 193,13c39,-11 44,-15 42,-37c-2,-14 -26,-54 -55,-90c-34,-44 -49,-69 -42,-76c11,-11 42,6 99,57c20,18 49,35 64,38c24,5 29,1 40,-31c19,-56 15,-151 -9,-200c-17,-35 -19,-43 -7,-48c28,-10 181,127 251,224c48,68 51,87 7,59c-14,-10 -27,-16 -30,-14c-2,2 8,31 21,65c14,33 35,98 47,144l22,84l110,115c61,63 142,156 179,205c62,84 144,222 135,230c-2,2 -26,-8 -53,-24zm-128,-153c22,-20 31,-48 16,-48c-12,0 -53,43 -53,57c0,19 10,16 37,-9z" fill="#800001" id="svg_17"/>
  </g>
 </g>
</svg>