<?xml version="1.0"?>
<svg width="684" height="544" xmlns="http://www.w3.org/2000/svg" xmlns:svg="http://www.w3.org/2000/svg" preserveAspectRatio="xMidYMid meet" version="1.0">
 <g class="layer">
  <title>Layer 1</title>
  <g fill="#000000" id="svg_1" transform="translate(0 544) matrix(0.1 0 0 -0.1 0 0)">
   <path d="m4530,3814c-260,-136 -614,-418 -863,-687c-68,-74 -83,-85 -120,-91c-82,-13 -294,-76 -417,-125c-68,-27 -125,-49 -126,-48c-1,1 16,31 37,66c21,36 39,68 39,73c0,20 -115,-53 -224,-141c-78,-63 -246,-243 -324,-347c-49,-66 -51,-70 -34,-87c17,-17 21,-16 79,13c82,41 191,63 268,55c53,-5 188,-45 202,-59c2,-2 -3,-15 -12,-29c-11,-17 -13,-27 -6,-32c18,-11 13,-21 -37,-77c-27,-29 -75,-86 -106,-127l-57,-74l20,-20l20,-20l41,28c22,15 82,63 132,106c66,56 95,76 104,68c8,-6 20,-6 38,2c14,7 29,10 32,6c16,-16 54,-178 54,-232c0,-76 -29,-189 -63,-248c-26,-44 -26,-45 -7,-62c25,-22 27,-20 190,116c128,107 238,222 308,322c46,65 86,137 80,142c-2,2 -34,-14 -71,-35c-37,-22 -67,-37 -67,-34c0,3 15,42 34,87c46,112 90,251 122,382l26,110l174,175c235,238 340,363 482,576c69,103 165,279 160,294c-1,5 -50,-16 -108,-46zm-236,-304c45,-48 51,-70 20,-70c-23,0 -107,88 -100,105c10,26 32,16 80,-35z" fill="#800001" id="svg_2"/>
  </g>
 </g>
</svg>