<?xml version="1.0"?>
<svg width="960" height="960" xmlns="http://www.w3.org/2000/svg" xmlns:svg="http://www.w3.org/2000/svg" preserveAspectRatio="xMidYMid meet" version="1.0">
 <g class="layer">
  <title>Layer 1</title>
  <g fill="#000000" id="svg_1" transform="translate(0 960) matrix(0.1 0 0 -0.1 0 0)">
   <path d="m9595,4805c0,-2640 1,-3719 2,-2397c2,1322 2,3482 0,4800c-1,1318 -2,237 -2,-2403z" id="svg_2"/>
   <path d="m3315,5939c-162,-86 -320,-195 -510,-350c-106,-86 -181,-157 -350,-327l-140,-140l-65,-13c-95,-18 -279,-75 -400,-122c-160,-62 -159,-62 -116,2c14,20 28,49 32,64l7,27l-43,-22c-147,-75 -354,-270 -537,-507c-56,-72 -35,-115 37,-74c118,66 285,84 413,43c99,-32 110,-39 96,-63c-6,-12 -8,-31 -5,-42c4,-16 -9,-38 -53,-87c-32,-36 -81,-96 -109,-133c-44,-59 -49,-71 -39,-88c6,-10 18,-19 26,-19c15,0 113,75 211,161c52,45 69,55 82,48c12,-6 24,-5 37,3c14,9 24,9 31,2c22,-22 53,-133 58,-211c6,-101 -9,-186 -50,-276c-29,-63 -30,-69 -15,-84c15,-15 19,-14 59,12c121,79 359,309 453,437c61,82 98,152 85,156c-5,2 -36,-12 -67,-32c-32,-19 -59,-31 -61,-26c-2,6 19,67 46,137c58,151 64,169 105,335l32,127l165,168c287,291 435,472 577,706c50,83 123,220 123,232c0,13 -32,1 -115,-44zm-251,-320c32,-33 47,-55 43,-65c-4,-9 -11,-16 -17,-16c-19,0 -110,92 -110,111c0,33 34,21 84,-30z" fill="#990001" id="svg_3" transform="matrix(1 0 0 1 0 0)"/>
   <path d="m3885,5418c-3,-7 -19,-51 -35,-98c-17,-47 -35,-96 -40,-110c-4,-14 -27,-77 -50,-140c-23,-63 -46,-128 -51,-145c-5,-16 -13,-39 -18,-50c-5,-11 -23,-60 -41,-110c-17,-49 -43,-121 -57,-160c-13,-38 -31,-86 -39,-105c-7,-19 -32,-86 -53,-147l-39,-113l561,0c440,0 573,3 612,14c154,41 250,131 316,296c46,115 46,186 1,252c-31,45 -69,67 -116,69c-12,0 13,12 55,28c124,44 219,125 265,225c60,129 31,242 -73,287c-42,18 -77,19 -619,19c-451,0 -576,-3 -579,-12zm912,-280c-8,-37 -49,-142 -60,-155c-7,-10 -84,-13 -324,-13l-315,0l6,36c4,19 9,41 12,49c4,8 -18,26 -61,50c-48,27 -63,40 -53,46c7,5 190,9 407,9l393,0l-5,-22zm-172,-450c2,-7 -8,-49 -24,-93l-29,-80l-322,-3l-322,-2l6,25c3,14 8,35 11,48c5,19 -4,28 -56,60c-47,29 -59,41 -49,47c8,5 187,9 398,10c301,0 383,-2 387,-12z" fill="#990001" id="svg_4" transform="matrix(1 0 0 1 0 0)"/>
   <path d="m5445,5388c-9,-24 -39,-106 -67,-183c-59,-168 -84,-238 -133,-370c-20,-55 -59,-163 -87,-240c-27,-77 -65,-181 -84,-232c-18,-51 -34,-99 -34,-108c0,-14 22,-15 176,-13c145,3 178,6 185,18c22,42 88,243 83,251c-3,5 -30,24 -60,40c-30,17 -56,35 -59,40c-8,12 425,16 440,4c13,-10 133,-193 196,-297l34,-57l178,-1c110,0 177,4 177,10c0,5 -47,83 -105,171c-58,89 -105,166 -105,170c0,8 29,13 51,11c29,-4 143,24 193,48c98,46 182,137 220,238c102,275 109,297 109,358c-1,90 -30,136 -107,168c-34,14 -109,16 -611,16l-573,0l-17,-42zm920,-238c3,-5 -15,-68 -41,-140l-46,-130l-324,0c-178,0 -324,3 -324,8c0,4 14,43 30,85c17,43 30,82 30,87c0,4 -29,25 -65,45c-36,20 -63,40 -60,46c8,13 792,12 800,-1z" fill="#990001" id="svg_5"/>
   <path d="m6921,5403c-23,-60 -81,-226 -81,-234c0,-5 96,-9 213,-9c116,0 218,-4 225,-8c12,-8 -2,-56 -63,-212c-8,-19 -33,-87 -55,-150c-78,-215 -151,-415 -160,-435c-15,-35 -40,-105 -40,-110c0,-3 82,-4 182,-3l182,3l34,90c19,50 40,106 47,125c7,19 25,69 40,110c15,41 33,91 40,110c31,79 135,373 135,381c0,4 -29,25 -66,45c-36,20 -62,39 -59,43c4,3 146,8 317,11l311,5l32,90c18,50 38,103 44,118c24,61 70,57 -628,57l-639,0l-11,-27z" fill="#990001" id="svg_6"/>
  </g>
 </g>
</svg>